<svg width="1024" height="1024" viewBox="0 0 1024 1024" fill="none" xmlns="http://www.w3.org/2000/svg">
<g clip-path="url(#clip0_304_439)">
<rect width="1024" height="1024" rx="180" fill="url(#paint0_linear_304_439)"/>
<rect x="-89.5119" y="587.802" width="1201.71" height="669.247" fill="#2776BB" stroke="black" stroke-width="24"/>
<circle cx="511.343" cy="562.63" r="315.343" fill="#020E20" fill-opacity="0.11"/>
<g filter="url(#filter0_dii_304_439)">
<circle cx="512" cy="535.631" r="316" fill="url(#paint1_linear_304_439)"/>
</g>
<g filter="url(#filter1_i_304_439)">
<circle cx="511.343" cy="535.63" r="264.523" fill="url(#paint2_linear_304_439)"/>
</g>
<circle cx="511.343" cy="535.63" r="262.523" stroke="url(#paint3_linear_304_439)" stroke-width="4"/>
<g filter="url(#filter2_i_304_439)">
<circle cx="511.343" cy="535.631" r="137.88" fill="url(#paint4_linear_304_439)"/>
</g>
<circle cx="511.343" cy="535.631" r="76.9736" fill="#241C11"/>
<path d="M684.893 362.082C662.102 339.291 635.045 321.212 605.267 308.878C575.49 296.543 543.574 290.195 511.343 290.195C479.112 290.195 447.197 296.543 417.419 308.878C387.641 321.212 360.585 339.291 337.794 362.082C315.003 384.872 296.924 411.929 284.59 441.707C272.256 471.484 265.907 503.4 265.907 535.631C265.907 567.862 272.256 599.777 284.59 629.555C296.924 659.333 315.003 686.389 337.794 709.18C337.794 709.18 422.215 586.42 491.691 517.415C559.386 450.179 684.893 362.082 684.893 362.082Z" fill="url(#paint5_radial_304_439)" fill-opacity="0.5"/>
<circle cx="451.271" cy="511.501" r="16.9011" fill="white"/>
<g filter="url(#filter3_ii_304_439)">
<path d="M828.882 120.404C838.276 155.461 842.973 172.99 836.181 184.293C833.562 188.654 829.911 192.305 825.55 194.925C814.247 201.716 796.718 197.019 761.661 187.626C726.603 178.232 709.074 173.535 702.681 162.002C700.214 157.552 698.878 152.566 698.79 147.479C698.56 134.294 711.392 121.462 737.056 95.7986C762.719 70.1348 775.551 57.303 788.736 57.5326C793.823 57.6212 798.809 58.9574 803.259 61.4238C814.792 67.8175 819.489 85.3462 828.882 120.404Z" fill="#F2092D"/>
</g>
<path d="M788.876 49.5338L788.736 57.5326L788.876 49.5338C779.457 49.3698 771.109 53.9515 762.608 60.6844C754.18 67.3601 744.289 77.251 731.784 89.7568L731.399 90.1418L731.014 90.5268C718.508 103.032 708.617 112.923 701.941 121.351C695.208 129.852 690.627 138.2 690.791 147.619C690.902 154.015 692.582 160.286 695.684 165.88C700.251 174.119 708.393 179.058 718.474 183.053C728.47 187.015 741.981 190.635 759.064 195.212L759.59 195.353L760.116 195.494C777.199 200.071 790.71 203.692 801.347 205.259C812.075 206.84 821.595 206.633 829.67 201.782C835.154 198.488 839.744 193.897 843.039 188.413C847.89 180.339 848.097 170.818 846.516 160.09C844.949 149.453 841.328 135.942 836.751 118.859L836.61 118.333L836.469 117.807C831.892 100.724 828.272 87.2129 824.31 77.2174C820.315 67.1362 815.376 58.9944 807.137 54.427C801.543 51.3255 795.272 49.6452 788.876 49.5338Z" stroke="url(#paint6_linear_304_439)" stroke-width="16"/>
<g filter="url(#filter4_ii_304_439)">
<path d="M926.57 218.091C891.513 208.698 873.984 204.001 862.68 210.792C858.319 213.412 854.669 217.063 852.049 221.423C845.258 232.727 849.954 250.256 859.348 285.313C868.742 320.371 873.438 337.899 884.972 344.293C889.421 346.759 894.408 348.096 899.494 348.184C912.679 348.414 925.511 335.582 951.175 309.918C976.839 284.254 989.671 271.422 989.441 258.237C989.352 253.151 988.016 248.164 985.55 243.715C979.156 232.182 961.627 227.485 926.57 218.091Z" fill="#F2092D"/>
</g>
<path d="M858.56 203.935C866.635 199.083 876.155 198.877 886.884 200.458C897.52 202.025 911.032 205.645 928.115 210.223L928.64 210.364L929.166 210.505C946.249 215.082 959.761 218.702 969.756 222.663C979.837 226.659 987.979 231.597 992.546 239.836C995.648 245.431 997.328 251.702 997.44 258.098C997.604 267.517 993.022 275.865 986.289 284.365C979.613 292.794 969.723 302.684 957.217 315.19L956.832 315.575L956.447 315.96C943.941 328.466 934.05 338.357 925.622 345.032C917.122 351.765 908.774 356.347 899.355 356.183C892.959 356.072 886.688 354.391 881.093 351.29C872.854 346.722 867.915 338.581 863.92 328.499C859.959 318.504 856.339 304.993 851.761 287.909L851.621 287.384L851.48 286.858C846.902 269.775 843.282 256.264 841.715 245.627C840.134 234.899 840.34 225.378 845.192 217.303C848.486 211.82 853.077 207.229 858.56 203.935Z" stroke="url(#paint7_linear_304_439)" stroke-width="16"/>
<g filter="url(#filter5_ii_304_439)">
<circle cx="844.115" cy="202.859" r="43.2152" transform="rotate(45 844.115 202.859)" fill="#F2092D"/>
</g>
<circle cx="844.115" cy="202.859" r="51.2152" transform="rotate(45 844.115 202.859)" stroke="url(#paint8_linear_304_439)" stroke-width="16"/>
</g>
<defs>
<filter id="filter0_dii_304_439" x="162" y="193.631" width="700" height="700" filterUnits="userSpaceOnUse" color-interpolation-filters="sRGB">
<feFlood flood-opacity="0" result="BackgroundImageFix"/>
<feColorMatrix in="SourceAlpha" type="matrix" values="0 0 0 0 0 0 0 0 0 0 0 0 0 0 0 0 0 0 127 0" result="hardAlpha"/>
<feOffset dy="8"/>
<feGaussianBlur stdDeviation="17"/>
<feComposite in2="hardAlpha" operator="out"/>
<feColorMatrix type="matrix" values="0 0 0 0 0 0 0 0 0 0 0 0 0 0 0 0 0 0 0.25 0"/>
<feBlend mode="normal" in2="BackgroundImageFix" result="effect1_dropShadow_304_439"/>
<feBlend mode="normal" in="SourceGraphic" in2="effect1_dropShadow_304_439" result="shape"/>
<feColorMatrix in="SourceAlpha" type="matrix" values="0 0 0 0 0 0 0 0 0 0 0 0 0 0 0 0 0 0 127 0" result="hardAlpha"/>
<feOffset dx="18" dy="17"/>
<feGaussianBlur stdDeviation="21"/>
<feComposite in2="hardAlpha" operator="arithmetic" k2="-1" k3="1"/>
<feColorMatrix type="matrix" values="0 0 0 0 1 0 0 0 0 1 0 0 0 0 1 0 0 0 0.98 0"/>
<feBlend mode="normal" in2="shape" result="effect2_innerShadow_304_439"/>
<feColorMatrix in="SourceAlpha" type="matrix" values="0 0 0 0 0 0 0 0 0 0 0 0 0 0 0 0 0 0 127 0" result="hardAlpha"/>
<feOffset dx="-23" dy="-6"/>
<feGaussianBlur stdDeviation="14.5"/>
<feComposite in2="hardAlpha" operator="arithmetic" k2="-1" k3="1"/>
<feColorMatrix type="matrix" values="0 0 0 0 0 0 0 0 0 0 0 0 0 0 0 0 0 0 0.25 0"/>
<feBlend mode="normal" in2="effect2_innerShadow_304_439" result="effect3_innerShadow_304_439"/>
</filter>
<filter id="filter1_i_304_439" x="246.82" y="271.107" width="529.046" height="529.046" filterUnits="userSpaceOnUse" color-interpolation-filters="sRGB">
<feFlood flood-opacity="0" result="BackgroundImageFix"/>
<feBlend mode="normal" in="SourceGraphic" in2="BackgroundImageFix" result="shape"/>
<feColorMatrix in="SourceAlpha" type="matrix" values="0 0 0 0 0 0 0 0 0 0 0 0 0 0 0 0 0 0 127 0" result="hardAlpha"/>
<feMorphology radius="16" operator="erode" in="SourceAlpha" result="effect1_innerShadow_304_439"/>
<feOffset/>
<feGaussianBlur stdDeviation="13.5"/>
<feComposite in2="hardAlpha" operator="arithmetic" k2="-1" k3="1"/>
<feColorMatrix type="matrix" values="0 0 0 0 0 0 0 0 0 0 0 0 0 0 0 0 0 0 0.3 0"/>
<feBlend mode="normal" in2="shape" result="effect1_innerShadow_304_439"/>
</filter>
<filter id="filter2_i_304_439" x="373.463" y="397.751" width="275.76" height="275.76" filterUnits="userSpaceOnUse" color-interpolation-filters="sRGB">
<feFlood flood-opacity="0" result="BackgroundImageFix"/>
<feBlend mode="normal" in="SourceGraphic" in2="BackgroundImageFix" result="shape"/>
<feColorMatrix in="SourceAlpha" type="matrix" values="0 0 0 0 0 0 0 0 0 0 0 0 0 0 0 0 0 0 127 0" result="hardAlpha"/>
<feMorphology radius="13" operator="erode" in="SourceAlpha" result="effect1_innerShadow_304_439"/>
<feOffset/>
<feGaussianBlur stdDeviation="12"/>
<feComposite in2="hardAlpha" operator="arithmetic" k2="-1" k3="1"/>
<feColorMatrix type="matrix" values="0 0 0 0 0 0 0 0 0 0 0 0 0 0 0 0 0 0 0.36 0"/>
<feBlend mode="normal" in2="shape" result="effect1_innerShadow_304_439"/>
</filter>
<filter id="filter3_ii_304_439" x="681.362" y="34.4063" width="174.035" height="182.583" filterUnits="userSpaceOnUse" color-interpolation-filters="sRGB">
<feFlood flood-opacity="0" result="BackgroundImageFix"/>
<feBlend mode="normal" in="SourceGraphic" in2="BackgroundImageFix" result="shape"/>
<feColorMatrix in="SourceAlpha" type="matrix" values="0 0 0 0 0 0 0 0 0 0 0 0 0 0 0 0 0 0 127 0" result="hardAlpha"/>
<feOffset dy="-19.2327"/>
<feGaussianBlur stdDeviation="3.56161"/>
<feComposite in2="hardAlpha" operator="arithmetic" k2="-1" k3="1"/>
<feColorMatrix type="matrix" values="0 0 0 0 0 0 0 0 0 0 0 0 0 0 0 0 0 0 0.25 0"/>
<feBlend mode="normal" in2="shape" result="effect1_innerShadow_304_439"/>
<feColorMatrix in="SourceAlpha" type="matrix" values="0 0 0 0 0 0 0 0 0 0 0 0 0 0 0 0 0 0 127 0" result="hardAlpha"/>
<feOffset dx="-1.42464" dy="2.84928"/>
<feGaussianBlur stdDeviation="4.27393"/>
<feComposite in2="hardAlpha" operator="arithmetic" k2="-1" k3="1"/>
<feColorMatrix type="matrix" values="0 0 0 0 0 0 0 0 0 0 0 0 0 0 0 0 0 0 0.25 0"/>
<feBlend mode="normal" in2="effect1_innerShadow_304_439" result="effect2_innerShadow_304_439"/>
</filter>
<filter id="filter4_ii_304_439" x="831.409" y="184.454" width="174.035" height="182.583" filterUnits="userSpaceOnUse" color-interpolation-filters="sRGB">
<feFlood flood-opacity="0" result="BackgroundImageFix"/>
<feBlend mode="normal" in="SourceGraphic" in2="BackgroundImageFix" result="shape"/>
<feColorMatrix in="SourceAlpha" type="matrix" values="0 0 0 0 0 0 0 0 0 0 0 0 0 0 0 0 0 0 127 0" result="hardAlpha"/>
<feOffset dy="-19.2327"/>
<feGaussianBlur stdDeviation="3.56161"/>
<feComposite in2="hardAlpha" operator="arithmetic" k2="-1" k3="1"/>
<feColorMatrix type="matrix" values="0 0 0 0 0 0 0 0 0 0 0 0 0 0 0 0 0 0 0.25 0"/>
<feBlend mode="normal" in2="shape" result="effect1_innerShadow_304_439"/>
<feColorMatrix in="SourceAlpha" type="matrix" values="0 0 0 0 0 0 0 0 0 0 0 0 0 0 0 0 0 0 127 0" result="hardAlpha"/>
<feOffset dx="-1.42464" dy="2.84928"/>
<feGaussianBlur stdDeviation="4.27393"/>
<feComposite in2="hardAlpha" operator="arithmetic" k2="-1" k3="1"/>
<feColorMatrix type="matrix" values="0 0 0 0 0 0 0 0 0 0 0 0 0 0 0 0 0 0 0.25 0"/>
<feBlend mode="normal" in2="effect1_innerShadow_304_439" result="effect2_innerShadow_304_439"/>
</filter>
<filter id="filter5_ii_304_439" x="783.475" y="136.52" width="119.855" height="128.403" filterUnits="userSpaceOnUse" color-interpolation-filters="sRGB">
<feFlood flood-opacity="0" result="BackgroundImageFix"/>
<feBlend mode="normal" in="SourceGraphic" in2="BackgroundImageFix" result="shape"/>
<feColorMatrix in="SourceAlpha" type="matrix" values="0 0 0 0 0 0 0 0 0 0 0 0 0 0 0 0 0 0 127 0" result="hardAlpha"/>
<feOffset dy="-19.2327"/>
<feGaussianBlur stdDeviation="3.56161"/>
<feComposite in2="hardAlpha" operator="arithmetic" k2="-1" k3="1"/>
<feColorMatrix type="matrix" values="0 0 0 0 0 0 0 0 0 0 0 0 0 0 0 0 0 0 0.25 0"/>
<feBlend mode="normal" in2="shape" result="effect1_innerShadow_304_439"/>
<feColorMatrix in="SourceAlpha" type="matrix" values="0 0 0 0 0 0 0 0 0 0 0 0 0 0 0 0 0 0 127 0" result="hardAlpha"/>
<feOffset dx="-1.42464" dy="2.84928"/>
<feGaussianBlur stdDeviation="4.27393"/>
<feComposite in2="hardAlpha" operator="arithmetic" k2="-1" k3="1"/>
<feColorMatrix type="matrix" values="0 0 0 0 0 0 0 0 0 0 0 0 0 0 0 0 0 0 0.25 0"/>
<feBlend mode="normal" in2="effect1_innerShadow_304_439" result="effect2_innerShadow_304_439"/>
</filter>
<linearGradient id="paint0_linear_304_439" x1="57.5024" y1="2.67484e-06" x2="875.31" y2="988.33" gradientUnits="userSpaceOnUse">
<stop stop-color="#F8F8F8"/>
<stop offset="0.503119" stop-color="#F3F3F3"/>
<stop offset="1" stop-color="#DEDEDE"/>
</linearGradient>
<linearGradient id="paint1_linear_304_439" x1="377.176" y1="255.529" x2="651.262" y2="824.607" gradientUnits="userSpaceOnUse">
<stop stop-color="#D3D3D3"/>
<stop offset="1" stop-color="#B5B5B5"/>
</linearGradient>
<linearGradient id="paint2_linear_304_439" x1="379.583" y1="317.211" x2="627.919" y2="777.532" gradientUnits="userSpaceOnUse">
<stop stop-color="#F3F3F3"/>
<stop offset="1" stop-color="#CACACA"/>
</linearGradient>
<linearGradient id="paint3_linear_304_439" x1="356.694" y1="338.407" x2="659.956" y2="770.171" gradientUnits="userSpaceOnUse">
<stop stop-color="#A7A7A7"/>
<stop offset="1" stop-color="#D3D3D3"/>
</linearGradient>
<linearGradient id="paint4_linear_304_439" x1="440.398" y1="424.786" x2="597.625" y2="643.157" gradientUnits="userSpaceOnUse">
<stop stop-color="#F9CE00"/>
<stop offset="1" stop-color="#EACE1D"/>
</linearGradient>
<radialGradient id="paint5_radial_304_439" cx="0" cy="0" r="1" gradientUnits="userSpaceOnUse" gradientTransform="translate(475.4 499.688) rotate(-136.813) scale(195.399 241.166)">
<stop stop-color="white"/>
<stop offset="1" stop-color="white" stop-opacity="0"/>
</radialGradient>
<linearGradient id="paint6_linear_304_439" x1="853.487" y1="212.23" x2="698.245" y2="56.988" gradientUnits="userSpaceOnUse">
<stop stop-color="#373737"/>
<stop offset="1" stop-color="#222222"/>
</linearGradient>
<linearGradient id="paint7_linear_304_439" x1="834.743" y1="193.486" x2="989.985" y2="348.729" gradientUnits="userSpaceOnUse">
<stop stop-color="#373737"/>
<stop offset="1" stop-color="#222222"/>
</linearGradient>
<linearGradient id="paint8_linear_304_439" x1="844.115" y1="159.643" x2="844.115" y2="246.074" gradientUnits="userSpaceOnUse">
<stop stop-color="#373737"/>
<stop offset="1" stop-color="#222222"/>
</linearGradient>
<clipPath id="clip0_304_439">
<rect width="1024" height="1024" rx="180" fill="white"/>
</clipPath>
</defs>
</svg>
